HIERARCHY
ROOT Hips
{
	OFFSET 0.000000 0.000000 0.000000
	CHANNELS 6 Xposition Yposition Zposition Xrotation Yrotation Zrotation
	JOINT LeftUpLeg_virtual
	{
		OFFSET 0.000000 0.000000 0.000000
		CHANNELS 3 Xrotation Yrotation Zrotation
		JOINT LeftUpLeg
		{
			OFFSET 13.026900 -6.336304 -1.092800
			CHANNELS 3 Xrotation Yrotation Zrotation
			JOINT LeftLeg
			{
				OFFSET 0.524474 -46.096886 9.782700
				CHANNELS 3 Xrotation Yrotation Zrotation
				JOINT LeftFoot
				{
					OFFSET -0.524474 -53.427422 -12.948200
					CHANNELS 3 Xrotation Yrotation Zrotation
					JOINT LeftToeBase
					{
						OFFSET 0.192200 -14.009700 16.364100
						CHANNELS 3 Xrotation Yrotation Zrotation
						JOINT LeftToe_End
						{
							OFFSET -1.784700 -0.561700 9.474800
							CHANNELS 3 Xrotation Yrotation Zrotation
							End Site
							{
								OFFSET 0 0 0
							}
						}
					}
				}
			}
		}
	}
	JOINT RightUpLeg_virtual
	{
		OFFSET 0.000000 0.000000 0.000000
		CHANNELS 3 Xrotation Yrotation Zrotation
		JOINT RightUpLeg
		{
			OFFSET -12.883000 -6.336304 -1.092800
			CHANNELS 3 Xrotation Yrotation Zrotation
			JOINT RightLeg
			{
				OFFSET -0.524587 -46.096825 9.782800
				CHANNELS 3 Xrotation Yrotation Zrotation
				JOINT RightFoot
				{
					OFFSET 0.524587 -53.427383 -12.948300
					CHANNELS 3 Xrotation Yrotation Zrotation
					JOINT RightToeBase
					{
						OFFSET -0.192200 -14.009700 16.364100
						CHANNELS 3 Xrotation Yrotation Zrotation
						JOINT RightToe_End
						{
							OFFSET 1.784700 -0.561700 9.474800
							CHANNELS 3 Xrotation Yrotation Zrotation
							End Site
							{
								OFFSET 0 0 0
							}
						}
					}
				}
			}
		}
	}
	JOINT Spine_virtual
	{
		OFFSET 0.000000 0.000000 0.000000
		CHANNELS 3 Xrotation Yrotation Zrotation
		JOINT Spine
		{
			OFFSET 0.072000 7.257294 -0.789700
			CHANNELS 3 Xrotation Yrotation Zrotation
			JOINT Spine1
			{
				OFFSET 0.000000 12.508769 -0.658067
				CHANNELS 3 Xrotation Yrotation Zrotation
				JOINT Spine1_split
				{
					OFFSET 0.000000 12.508769 -0.658067
					CHANNELS 3 Xrotation Yrotation Zrotation
					JOINT Spine2
					{
						OFFSET 0.000000 12.508769 -0.658067
						CHANNELS 3 Xrotation Yrotation Zrotation
						JOINT Neck_virtual
						{
							OFFSET 0.000000 0.000000 0.000000
							CHANNELS 3 Xrotation Yrotation Zrotation
							JOINT Neck
							{
								OFFSET 0.000000 14.033295 7.520400
								CHANNELS 3 Xrotation Yrotation Zrotation
								JOINT Head
								{
									OFFSET 0.000000 8.198502 5.703100
									CHANNELS 3 Xrotation Yrotation Zrotation
									JOINT HeadTop_End
									{
										OFFSET 0.000000 17.760803 13.332701
										CHANNELS 3 Xrotation Yrotation Zrotation
										End Site
										{
											OFFSET 0 0 0
										}
									}
								}
							}
						}
						JOINT LeftShoulder_virtual
						{
							OFFSET 0.000000 0.000000 0.000000
							CHANNELS 3 Xrotation Yrotation Zrotation
							JOINT LeftShoulder
							{
								OFFSET 6.292450 5.785301 -0.669000
								CHANNELS 3 Xrotation Yrotation Zrotation
								JOINT LeftShoulder_split
								{
									OFFSET 6.292450 5.785301 -0.669000
									CHANNELS 3 Xrotation Yrotation Zrotation
									JOINT LeftArm
									{
										OFFSET 13.907140 -6.093903 1.965100
										CHANNELS 3 Xrotation Yrotation Zrotation
										JOINT LeftForeArm
										{
											OFFSET 34.140198 0.000000 0.000000
											CHANNELS 3 Xrotation Yrotation Zrotation
											JOINT LeftHand
											{
												OFFSET 40.960209 0.000000 0.000000
												CHANNELS 3 Xrotation Yrotation Zrotation
												End Site
												{
													OFFSET 0 0 0
												}
											}
										}
									}
								}
							}
						}
						JOINT RightShoulder_virtual
						{
							OFFSET 0.000000 0.000000 0.000000
							CHANNELS 3 Xrotation Yrotation Zrotation
							JOINT RightShoulder
							{
								OFFSET -6.292450 5.785301 -0.669000
								CHANNELS 3 Xrotation Yrotation Zrotation
								JOINT RightShoulder_split
								{
									OFFSET -6.292450 5.785301 -0.669000
									CHANNELS 3 Xrotation Yrotation Zrotation
									JOINT RightArm
									{
										OFFSET -13.907140 -6.093903 1.965100
										CHANNELS 3 Xrotation Yrotation Zrotation
										JOINT RightForeArm
										{
											OFFSET -34.140198 0.000000 0.000000
											CHANNELS 3 Xrotation Yrotation Zrotation
											JOINT RightHand
											{
												OFFSET -40.960209 0.000000 0.000000
												CHANNELS 3 Xrotation Yrotation Zrotation
												End Site
												{
													OFFSET 0 0 0
												}
											}
										}
									}
								}
							}
						}
					}
				}
			}
		}
	}
}
MOTION
Frames: 7
Frame Time: 0.03333333
0.773392 101.614288 -5.753605 0.000000 0.000000 0.000000 -3.172782 34.790060 9.558570 -31.878412 -8.171455 4.850822 34.234336 -1.445577 1.869386 -0.341992 0.200303 -14.264906 -0.234731 -2.681083 2.831821 0.000000 0.000000 0.000000 -2.167670 33.480757 8.989514 -5.902439 -31.571450 -13.976825 41.365166 10.305839 -4.619942 -33.073965 -23.093689 14.329040 -0.993483 7.001057 -8.790850 0.000000 0.000000 0.000000 -2.909556 45.126712 9.231880 14.680583 -1.837783 -4.908846 3.827532 -6.073707 -0.234292 0.190523 0.483766 -0.220331 0.000000 0.000000 0.000000 4.145518 -3.265773 0.133918 -8.535866 -10.844462 14.603013 1.526842 -21.808511 -3.794990 0.000000 0.000000 0.000000 4.766719 -4.082813 -0.223459 4.568685 -5.635887 -11.479184 1.215892 -9.832401 -5.785426 -23.832361 -23.179060 -44.158017 65.252991 -30.902914 23.162628 0.000000 0.000000 0.000000 8.225354 -4.401050 -0.180604 -0.666903 -2.489426 -5.426561 1.578083 -4.032849 16.820049 -22.577901 -13.215270 19.512302 -150.947686 24.788107 156.915878 0.000000 0.000000 0.000000 
0.515413 102.093124 -5.405010 0.000000 0.000000 0.000000 -3.057448 33.563457 9.209447 -31.508595 -8.985501 4.973427 33.550115 -1.400330 2.086057 -0.471677 0.316263 -15.148940 0.006014 -2.771075 2.970170 0.000000 0.000000 0.000000 -2.117182 32.784976 8.743384 -4.718764 -31.912140 -12.645965 40.202053 9.709788 -4.237265 -33.864037 -23.349183 13.320195 -0.239269 7.019371 -8.973782 0.000000 0.000000 0.000000 -2.495993 44.704199 8.543449 14.598855 -2.325703 -5.024565 3.654774 -6.946534 0.102230 0.162391 0.415874 -0.100324 0.000000 0.000000 0.000000 4.454242 -4.161842 0.524642 -7.603553 -9.933967 10.531280 1.224923 -17.911087 -3.128585 0.000000 0.000000 0.000000 4.466033 -4.968257 0.248403 4.384200 -7.184819 -12.160809 0.806130 -9.545516 -5.464291 -21.744466 -17.465706 -43.176279 66.282977 -31.615986 23.420854 0.000000 0.000000 0.000000 7.823117 -5.322397 0.386874 0.254502 -3.952169 2.280925 1.579438 -1.647200 14.705831 -20.353928 -30.074395 20.502155 -149.011368 25.148234 157.454671 0.000000 0.000000 0.000000 
0.485641 102.792519 -5.120316 0.000000 0.000000 0.000000 -2.567246 31.763272 8.429632 -30.589682 -9.528899 5.399062 33.053362 -1.371349 2.250501 -1.163187 0.915786 -16.214304 0.161191 -2.842554 3.059690 0.000000 0.000000 0.000000 -1.787326 31.177143 8.064473 -4.285575 -31.812275 -11.410208 38.826757 9.196034 -3.840497 -33.864088 -23.335741 12.232271 0.484908 7.018063 -9.029411 0.000000 0.000000 0.000000 -1.791765 43.537316 7.505721 14.722835 -2.814079 -4.579538 3.705694 -7.698320 0.339338 0.152502 0.277435 -0.034772 0.000000 0.000000 0.000000 4.999570 -4.947521 0.896033 -6.797639 -8.955287 6.955499 0.482094 -13.946897 -2.914595 0.000000 0.000000 0.000000 4.542132 -5.760647 0.560322 4.186874 -8.725611 -13.055493 0.434886 -9.408940 -4.983404 -19.003075 -12.881735 -42.260081 65.549373 -30.925396 22.303047 0.000000 0.000000 0.000000 7.503474 -6.155038 0.806167 1.278564 -3.656311 8.259259 0.956028 -0.069799 12.408408 -23.887268 -41.599783 20.707085 -146.612114 25.682807 157.419154 0.000000 0.000000 0.000000 
0.631426 103.548485 -4.984772 0.000000 0.000000 0.000000 -1.908951 29.541408 7.411425 -29.181700 -9.627520 6.078730 32.907633 -1.410704 2.361844 -2.316493 1.853585 -17.274201 0.106581 -2.909151 3.094242 0.000000 0.000000 0.000000 -1.281246 28.763907 7.107050 -4.823003 -31.258409 -10.512105 37.684968 8.886029 -3.518908 -32.845492 -23.044601 11.517433 0.853652 7.003854 -9.007184 0.000000 0.000000 0.000000 -1.026337 41.550339 6.315016 15.038878 -3.365838 -3.799313 3.898234 -8.221792 0.435303 0.136500 0.076228 -0.016283 0.000000 0.000000 0.000000 5.645044 -5.520945 1.155082 -6.112930 -8.023334 4.005719 -0.485017 -9.750460 -3.183008 0.000000 0.000000 0.000000 4.931611 -6.366357 0.685922 4.074125 -10.064621 -13.875920 -0.177339 -8.991714 -4.575853 -16.448286 -9.144159 -41.621646 64.233046 -29.247010 21.082644 0.000000 0.000000 0.000000 7.286690 -6.797764 1.024324 2.104998 -2.436753 11.812507 1.332436 1.211429 9.426985 -32.528506 -48.083231 17.335056 -144.545231 25.532149 157.439002 0.000000 0.000000 0.000000 
0.925864 104.208786 -5.063126 0.000000 0.000000 0.000000 -1.212724 27.112557 6.324277 -27.497986 -9.167560 6.963652 33.021219 -1.592804 2.370365 -3.636312 2.857185 -18.187534 -0.115416 -2.982522 3.080592 0.000000 0.000000 0.000000 -0.755611 25.873706 6.085488 -6.181068 -30.255911 -10.067148 36.978163 8.777938 -3.268987 -31.122129 -22.506100 11.104527 1.153660 6.949782 -8.988818 0.000000 0.000000 0.000000 -0.396371 38.879650 5.171457 15.500689 -4.030292 -2.970217 4.116939 -8.459619 0.412920 0.157027 -0.065299 -0.086223 0.000000 0.000000 0.000000 6.161942 -5.815728 1.234237 -5.488174 -7.336254 1.859171 -1.337553 -5.173998 -3.831939 0.000000 0.000000 0.000000 5.467873 -6.742956 0.635379 4.078301 -10.984586 -14.524349 -0.800445 -8.355818 -4.035084 -14.267909 -5.786932 -41.352397 64.001161 -27.888211 21.488018 0.000000 0.000000 0.000000 7.243457 -7.187633 1.083165 2.792272 -1.083889 12.938915 2.217793 2.358614 6.800775 -42.171668 -49.659990 11.438356 -142.938552 25.046515 157.555498 0.000000 0.000000 0.000000 
1.316903 104.745842 -5.336403 0.000000 0.000000 0.000000 -0.657712 24.895310 5.346599 -25.908176 -8.163946 7.982103 33.266488 -1.905032 2.247821 -4.786916 3.692083 -18.913274 -0.284433 -3.058488 2.991635 0.000000 0.000000 0.000000 -0.282246 23.151662 5.167716 -7.940745 -28.829699 -9.978464 36.444510 8.781958 -3.084757 -29.271534 -21.790194 10.738904 1.833575 6.841394 -9.043474 0.000000 0.000000 0.000000 -0.005366 36.003061 4.240644 16.008536 -4.822083 -2.303873 4.271943 -8.377014 0.332208 0.207346 -0.108759 -0.148461 0.000000 0.000000 0.000000 6.389170 -5.816033 1.144297 -4.759959 -6.987806 0.653659 -1.798556 -0.714650 -4.733873 0.000000 0.000000 0.000000 5.954498 -6.831843 0.441153 4.179160 -11.424268 -14.920500 -1.306671 -7.593529 -3.189455 -12.615160 -2.454159 -41.649780 65.591188 -27.427789 24.088513 0.000000 0.000000 0.000000 7.322525 -7.252324 1.046435 3.419318 -0.201708 12.404158 3.058469 3.178105 5.432464 -47.739023 -47.594561 6.942070 -141.602594 24.731292 157.544515 0.000000 0.000000 0.000000 
1.713249 105.154640 -5.728516 0.000000 0.000000 0.000000 -0.385555 23.352500 4.571657 -24.630147 -6.738717 9.009111 33.474692 -2.271058 1.997319 -5.514381 4.232336 -19.364853 -0.283993 -3.134929 2.836312 0.000000 0.000000 0.000000 0.114802 21.106668 4.425013 -9.533692 -27.011884 -10.017755 36.105012 8.742801 -2.974978 -27.620144 -21.091074 10.239065 2.750603 6.711124 -9.207238 0.000000 0.000000 0.000000 0.169557 33.387358 3.529951 16.389017 -5.715889 -1.940001 4.290728 -7.997685 0.254025 0.224689 -0.092538 -0.149418 0.000000 0.000000 0.000000 6.273947 -5.528170 0.956006 -3.969179 -6.999965 0.540716 -1.912180 3.232666 -5.831039 0.000000 0.000000 0.000000 6.184402 -6.649937 0.161604 4.288652 -11.599841 -15.160505 -1.700393 -6.912114 -2.483128 -11.644848 0.766661 -42.505019 68.629536 -27.709956 28.331362 0.000000 0.000000 0.000000 7.392635 -6.945967 0.976027 3.942016 -0.079710 11.335646 4.372319 3.173908 6.010805 -47.746062 -44.354897 5.553187 -140.623992 24.803586 157.213565 0.000000 0.000000 0.000000 
